<?xml version="1.0" standalone="no"?>
<!DOCTYPE svg PUBLIC "-//W3C//DTD SVG 20010904//EN"
 "http://www.w3.org/TR/2001/REC-SVG-20010904/DTD/svg10.dtd">
<svg version="1.0" xmlns="http://www.w3.org/2000/svg"
 width="512.000000pt" height="512.000000pt" viewBox="0 0 512.000000 512.000000"
 preserveAspectRatio="xMidYMid meet">

<g transform="translate(0.000000,512.000000) scale(0.100000,-0.100000)"
fill="#000000" stroke="none">
<path d="M1240 4027 c-124 -35 -200 -133 -200 -259 0 -44 -2 -49 -17 -43 -82
31 -265 32 -338 1 -55 -23 -113 -81 -141 -141 -22 -47 -24 -62 -24 -227 l0
-178 -158 0 c-150 0 -161 -1 -210 -26 -62 -31 -115 -90 -136 -152 -24 -68 -24
-816 0 -884 21 -62 74 -121 136 -152 49 -25 60 -26 210 -26 l158 0 0 -177 c0
-166 2 -181 24 -228 28 -60 86 -118 141 -141 73 -31 256 -30 338 1 15 6 17 1
17 -43 0 -104 55 -193 146 -238 44 -21 74 -28 147 -32 167 -8 271 33 332 132
l30 49 5 481 5 481 855 0 855 0 5 -481 5 -481 30 -49 c61 -99 165 -140 332
-132 73 4 103 11 147 32 91 45 146 134 146 238 0 44 2 49 17 43 82 -31 265
-32 338 -1 55 23 113 81 141 141 22 47 24 62 24 228 l0 177 158 0 c150 0 161
1 210 26 29 14 67 44 86 66 53 61 66 112 66 255 0 118 -1 125 -25 148 -31 32
-69 32 -100 0 -24 -23 -25 -30 -25 -140 0 -191 -16 -205 -230 -205 l-140 0 0
470 0 470 140 0 c214 0 230 -14 230 -205 0 -110 1 -117 25 -140 31 -32 69 -32
100 0 24 23 25 30 25 143 0 141 -15 201 -65 259 -19 23 -58 53 -87 67 -49 25
-60 26 -210 26 l-158 0 0 178 c0 165 -2 180 -24 227 -28 60 -86 118 -141 141
-73 31 -256 30 -338 -1 -15 -6 -17 -1 -17 43 0 104 -55 193 -146 238 -47 23
-73 28 -158 32 -165 7 -263 -34 -323 -135 l-28 -48 -5 -480 -5 -480 -855 0
-855 0 -5 183 c-5 167 -7 185 -24 198 -28 20 -69 17 -97 -5 l-24 -19 -5 -974
c-3 -535 -9 -981 -13 -990 -18 -35 -60 -52 -143 -56 -97 -5 -144 8 -179 49
l-25 31 0 1248 0 1248 25 31 c35 41 82 54 179 49 90 -5 127 -22 144 -66 6 -15
12 -85 14 -155 3 -128 3 -129 32 -154 22 -18 35 -23 55 -18 58 14 61 25 61
190 0 142 -1 154 -26 203 -29 59 -69 96 -134 125 -57 26 -231 34 -300 14z
m2614 -151 c18 -7 42 -26 54 -41 l22 -28 0 -1248 0 -1247 -25 -31 c-35 -41
-82 -54 -179 -49 -88 5 -125 21 -144 64 -9 18 -12 349 -12 1265 0 1339 -2
1280 52 1306 39 19 51 21 126 22 41 1 87 -5 106 -13z m-2873 -299 c57 -38 54
10 54 -1017 0 -1027 3 -979 -54 -1017 -21 -14 -47 -18 -128 -18 -110 0 -143
13 -170 66 -10 19 -13 240 -13 975 l0 951 22 28 c35 44 72 56 173 52 64 -2 97
-8 116 -20z m3416 -3 c15 -11 34 -32 40 -45 10 -19 13 -239 13 -969 0 -730 -3
-950 -13 -969 -27 -53 -60 -66 -166 -66 -107 0 -139 10 -168 54 -17 24 -18 88
-21 946 -2 506 0 939 3 962 7 47 49 98 88 106 12 3 61 4 109 4 71 -2 92 -6
115 -23z m-3877 -1014 l0 -470 -140 0 c-157 0 -189 9 -215 60 -22 43 -22 777
0 820 26 51 55 59 213 60 l142 0 0 -470z m1500 0 l0 -180 -160 0 -160 0 0 180
0 180 160 0 160 0 0 -180z m930 0 l0 -180 -390 0 -390 0 0 180 0 180 390 0
390 0 0 -180z m470 0 l0 -180 -160 0 -160 0 0 180 0 180 160 0 160 0 0 -180z"/>
</g>
</svg>
