<?xml version="1.0" standalone="no"?>
<!DOCTYPE svg PUBLIC "-//W3C//DTD SVG 20010904//EN"
 "http://www.w3.org/TR/2001/REC-SVG-20010904/DTD/svg10.dtd">
<svg version="1.0" xmlns="http://www.w3.org/2000/svg"
 width="591.000000pt" height="591.000000pt" viewBox="0 0 591.000000 591.000000"
 preserveAspectRatio="xMidYMid meet">

<g transform="translate(0.000000,591.000000) scale(0.100000,-0.100000)"
fill="#000000" stroke="none">
<path d="M2753 4665 c-33 -14 -43 -32 -43 -74 0 -41 25 -57 138 -91 764 -227
1396 -875 1671 -1713 24 -71 48 -97 91 -97 33 0 70 38 70 72 0 14 -16 71 -35
126 -307 882 -976 1542 -1796 1771 -55 16 -70 17 -96 6z"/>
<path d="M1795 4463 c-175 -37 -239 -72 -320 -173 -102 -129 -170 -265 -206
-417 -29 -120 -23 -296 15 -428 35 -123 157 -449 211 -563 233 -491 850 -1119
1350 -1374 122 -62 497 -205 623 -238 272 -71 510 -28 762 138 106 69 183 155
209 234 33 100 52 194 53 264 1 79 -9 92 -120 154 -42 24 -196 113 -342 198
-276 161 -313 176 -366 149 -43 -22 -119 -99 -211 -213 -85 -106 -160 -178
-192 -187 -46 -12 -346 151 -534 290 -128 95 -321 288 -416 416 -138 185 -291
459 -291 520 0 40 74 120 220 234 36 28 86 73 111 100 115 121 117 112 -85
457 -90 155 -178 307 -195 338 -17 31 -45 70 -60 87 -26 28 -35 31 -88 30 -32
0 -89 -7 -128 -16z"/>
<path d="M2839 4161 c-61 -61 -27 -105 116 -151 476 -152 873 -553 1060 -1070
46 -126 56 -140 105 -140 39 0 62 18 74 56 15 51 -133 389 -247 563 -190 289
-455 523 -749 661 -87 40 -285 110 -314 110 -9 0 -29 -13 -45 -29z"/>
<path d="M2965 3655 c-49 -48 -24 -104 58 -130 229 -75 435 -281 507 -510 18
-57 47 -85 87 -85 50 0 77 32 71 85 -6 47 -79 209 -129 282 -113 168 -271 294
-447 357 -91 32 -116 33 -147 1z"/>
</g>
</svg>
