<?xml version="1.0" standalone="no"?>
<!DOCTYPE svg PUBLIC "-//W3C//DTD SVG 20010904//EN"
 "http://www.w3.org/TR/2001/REC-SVG-20010904/DTD/svg10.dtd">
<svg version="1.0" xmlns="http://www.w3.org/2000/svg"
 width="512.000000pt" height="512.000000pt" viewBox="0 0 512.000000 512.000000"
 preserveAspectRatio="xMidYMid meet">

<g transform="translate(0.000000,512.000000) scale(0.100000,-0.100000)"
fill="#000000" stroke="none">
<path d="M363 5106 c-129 -32 -253 -130 -310 -247 -70 -144 -70 -282 0 -429
28 -60 101 -135 909 -945 l878 -881 0 -44 0 -45 -864 -865 c-475 -476 -877
-885 -893 -910 -190 -286 -23 -670 317 -731 92 -16 183 -3 282 42 72 32 90 50
953 911 l881 878 44 0 45 0 865 -864 c476 -475 887 -878 913 -896 185 -124
441 -98 596 60 159 162 185 412 61 597 -18 26 -421 437 -896 913 l-864 865 0
45 0 45 864 865 c475 476 878 887 896 913 184 275 27 658 -298 726 -107 22
-205 9 -312 -42 -60 -28 -135 -101 -945 -909 l-881 -878 -44 0 -44 0 -881 878
c-810 809 -885 881 -945 909 -110 52 -218 65 -327 39z"/>
</g>
</svg>
